<?xml version="1.0" encoding="us-ascii" standalone="no"?><svg xmlns="http://www.w3.org/2000/svg" xmlns:xlink="http://www.w3.org/1999/xlink" contentStyleType="text/css" height="702px" preserveAspectRatio="none" style="width:1519px;height:702px;background:#FFFFFF;" version="1.1" viewBox="0 0 1519 702" width="1519px" zoomAndPan="magnify"><defs/><g><text fill="#000000" font-family="sans-serif" font-size="14" font-weight="bold" lengthAdjust="spacing" textLength="80" x="712.75" y="22.9951">State bot?</text><g id="Initialization"><rect fill="#F1F1F1" height="64.2344" rx="12.5" ry="12.5" style="stroke:#181818;stroke-width:0.5;" width="155" x="1119" y="124.2969"/><line style="stroke:#181818;stroke-width:0.5;" x1="1119" x2="1274" y1="150.5938" y2="150.5938"/><text fill="#000000" font-family="sans-serif" font-size="14" lengthAdjust="spacing" textLength="79" x="1157" y="142.292">Initialization</text><text fill="#000000" font-family="sans-serif" font-size="12" lengthAdjust="spacing" textLength="113" x="1124" y="166.7324">Enrty / LoadConfig</text><text fill="#000000" font-family="sans-serif" font-size="12" lengthAdjust="spacing" textLength="135" x="1124" y="180.7012">Connect / Connection</text></g><ellipse cx="1196.5" cy="53.2969" fill="#222222" rx="10" ry="10" style="stroke:#222222;stroke-width:1.0;"/><g id="WaitingCommand"><rect fill="#F1F1F1" height="50" rx="12.5" ry="12.5" style="stroke:#181818;stroke-width:0.5;" width="141" x="1126" y="265.5269"/><line style="stroke:#181818;stroke-width:0.5;" x1="1126" x2="1267" y1="291.8238" y2="291.8238"/><text fill="#000000" font-family="sans-serif" font-size="14" lengthAdjust="spacing" textLength="121" x="1136" y="283.522">WaitingCommand</text></g><g id="ProcessTask"><rect fill="#F1F1F1" height="50" rx="12.5" ry="12.5" style="stroke:#181818;stroke-width:0.5;" width="109" x="669" y="392.5269"/><line style="stroke:#181818;stroke-width:0.5;" x1="669" x2="778" y1="418.8238" y2="418.8238"/><text fill="#000000" font-family="sans-serif" font-size="14" lengthAdjust="spacing" textLength="89" x="679" y="410.522">ProcessTask</text></g><g id="SendStatusResult"><rect fill="#F1F1F1" height="50" rx="12.5" ry="12.5" style="stroke:#181818;stroke-width:0.5;" width="144" x="714.5" y="646.5269"/><line style="stroke:#181818;stroke-width:0.5;" x1="714.5" x2="858.5" y1="672.8238" y2="672.8238"/><text fill="#000000" font-family="sans-serif" font-size="14" lengthAdjust="spacing" textLength="124" x="724.5" y="664.522">SendStatusResult</text></g><g id="CheckTask"><rect fill="#F1F1F1" height="50" rx="12.5" ry="12.5" style="stroke:#181818;stroke-width:0.5;" width="97" x="7" y="519.5269"/><line style="stroke:#181818;stroke-width:0.5;" x1="7" x2="104" y1="545.8238" y2="545.8238"/><text fill="#000000" font-family="sans-serif" font-size="14" lengthAdjust="spacing" textLength="77" x="17" y="537.522">CheckTask</text></g><g id="CreateTask"><rect fill="#F1F1F1" height="50" rx="12.5" ry="12.5" style="stroke:#181818;stroke-width:0.5;" width="99" x="208" y="519.5269"/><line style="stroke:#181818;stroke-width:0.5;" x1="208" x2="307" y1="545.8238" y2="545.8238"/><text fill="#000000" font-family="sans-serif" font-size="14" lengthAdjust="spacing" textLength="79" x="218" y="537.522">CreateTask</text></g><g id="UpdateStatus"><rect fill="#F1F1F1" height="50" rx="12.5" ry="12.5" style="stroke:#181818;stroke-width:0.5;" width="114" x="672.5" y="519.5269"/><line style="stroke:#181818;stroke-width:0.5;" x1="672.5" x2="786.5" y1="545.8238" y2="545.8238"/><text fill="#000000" font-family="sans-serif" font-size="14" lengthAdjust="spacing" textLength="94" x="682.5" y="537.522">UpdateStatus</text></g><g id="PollingExecutor"><rect fill="#F1F1F1" height="50" rx="12.5" ry="12.5" style="stroke:#181818;stroke-width:0.5;" width="126" x="1123.5" y="519.5269"/><line style="stroke:#181818;stroke-width:0.5;" x1="1123.5" x2="1249.5" y1="545.8238" y2="545.8238"/><text fill="#000000" font-family="sans-serif" font-size="14" lengthAdjust="spacing" textLength="106" x="1133.5" y="537.522">PollingExecutor</text></g><g id="Exit"><rect fill="#F1F1F1" height="50" rx="12.5" ry="12.5" style="stroke:#181818;stroke-width:0.5;" width="50" x="1312.5" y="392.5269"/><line style="stroke:#181818;stroke-width:0.5;" x1="1312.5" x2="1362.5" y1="418.8238" y2="418.8238"/><text fill="#000000" font-family="sans-serif" font-size="14" lengthAdjust="spacing" textLength="24" x="1325.5" y="410.522">Exit</text></g><ellipse cx="1351.5" cy="544.5269" fill="none" rx="11" ry="11" style="stroke:#222222;stroke-width:1.0;"/><ellipse cx="1351.5" cy="544.5269" fill="#222222" rx="6" ry="6" style="stroke:#222222;stroke-width:1.0;"/><!--link *start* to Initialization--><g id="link_*start*_Initialization"><path d="M1196.5,63.6269 C1196.5,77.2169 1196.5,97.1069 1196.5,117.9369 " fill="none" id="*start*-to-Initialization" style="stroke:#181818;stroke-width:1.0;"/><polygon fill="#181818" points="1196.5,123.9369,1200.5,114.9369,1196.5,118.9369,1192.5,114.9369,1196.5,123.9369" style="stroke:#181818;stroke-width:1.0;"/></g><!--link Initialization to WaitingCommand--><g id="link_Initialization_WaitingCommand"><path d="M1196.5,188.7169 C1196.5,212.0669 1196.5,237.5169 1196.5,259.0469 " fill="none" id="Initialization-to-WaitingCommand" style="stroke:#181818;stroke-width:1.0;"/><polygon fill="#181818" points="1196.5,265.0469,1200.5,256.0469,1196.5,260.0469,1192.5,256.0469,1196.5,265.0469" style="stroke:#181818;stroke-width:1.0;"/><text fill="#000000" font-family="sans-serif" font-size="13" lengthAdjust="spacing" textLength="106" x="1197.5" y="231.5938">Init / Load Config</text></g><!--link WaitingCommand to ProcessTask--><g id="link_WaitingCommand_ProcessTask"><path d="M1125.74,294.3369 C998.43,300.1269 741.41,315.4369 714.5,345.5269 C703.32,358.0269 704.4085,371.4377 709.8585,386.6677 " fill="none" id="WaitingCommand-to-ProcessTask" style="stroke:#181818;stroke-width:1.0;"/><polygon fill="#181818" points="711.88,392.3169,712.6138,382.4954,710.1954,387.6092,705.0816,385.1908,711.88,392.3169" style="stroke:#181818;stroke-width:1.0;"/><text fill="#000000" font-family="sans-serif" font-size="13" lengthAdjust="spacing" textLength="180" x="715.5" y="358.5938">TaskCommand / CreateTask</text></g><!--link WaitingCommand to ProcessTask--><g id="link_WaitingCommand_ProcessTask"><path d="M1125.51,301.6169 C1072.56,310.2569 998.91,324.6369 936.5,345.5269 C919.72,351.1469 917.01,356.1469 900.5,362.5269 C860.34,378.0369 819.5076,390.4886 784.1976,400.3786 " fill="none" id="WaitingCommand-to-ProcessTask-1" style="stroke:#181818;stroke-width:1.0;"/><polygon fill="#181818" points="778.42,401.9969,788.1653,403.4212,783.2347,400.6483,786.0076,395.7177,778.42,401.9969" style="stroke:#181818;stroke-width:1.0;"/><text fill="#000000" font-family="sans-serif" font-size="13" lengthAdjust="spacing" textLength="215" x="937.5" y="358.5938">StatusCommand / GetTaskStatus</text></g><!--link ProcessTask to WaitingCommand--><g id="link_ProcessTask_WaitingCommand"><path d="M778.4,415.7969 C880.98,413.4669 1096.87,403.6669 1157.5,362.5269 C1173.56,351.6269 1181.5612,337.4752 1187.4412,321.5552 " fill="none" id="ProcessTask-to-WaitingCommand" style="stroke:#181818;stroke-width:1.0;"/><polygon fill="#181818" points="1189.52,315.9269,1182.6495,322.9835,1187.7877,320.6172,1190.154,325.7553,1189.52,315.9269" style="stroke:#181818;stroke-width:1.0;"/><text fill="#000000" font-family="sans-serif" font-size="13" lengthAdjust="spacing" textLength="99" x="1175.5" y="358.5938">TaskCompleted</text></g><!--link SendStatusResult to WaitingCommand--><g id="link_SendStatusResult_WaitingCommand"><path d="M858.74,669.3769 C1002.11,665.4069 1314.45,647.7569 1380.5,569.5269 C1445.55,492.4869 1425.36,405.7669 1344.5,345.5269 C1321.8,328.6169 1298.9701,318.3893 1273.0301,310.0193 " fill="none" id="SendStatusResult-to-WaitingCommand" style="stroke:#181818;stroke-width:1.0;"/><polygon fill="#181818" points="1267.32,308.1769,1274.6568,314.7473,1272.0784,309.7123,1277.1135,307.1338,1267.32,308.1769" style="stroke:#181818;stroke-width:1.0;"/><text fill="#000000" font-family="sans-serif" font-size="13" lengthAdjust="spacing" textLength="91" x="1420.5" y="485.5938">StatusSended</text></g><!--link ProcessTask to CheckTask--><g id="link_ProcessTask_CheckTask"><path d="M668.51,418.7169 C514.19,419.8069 85.59,426.9669 43.5,472.5269 C32.05,484.9269 33.7173,498.4422 40.0273,513.7022 " fill="none" id="ProcessTask-to-CheckTask" style="stroke:#181818;stroke-width:1.0;"/><polygon fill="#181818" points="42.32,519.2469,42.5774,509.4014,40.4094,514.6263,35.1845,512.4583,42.32,519.2469" style="stroke:#181818;stroke-width:1.0;"/><text fill="#000000" font-family="sans-serif" font-size="13" lengthAdjust="spacing" textLength="104" x="44.5" y="485.5938">SendTaskStatus</text></g><!--link CheckTask to SendStatusResult--><g id="link_CheckTask_SendStatusResult"><path d="M104.22,554.2869 C129.88,558.8769 161.89,564.5569 190.5,569.5269 C379.46,602.3369 596.4421,638.7775 708.5321,657.5175 " fill="none" id="CheckTask-to-SendStatusResult" style="stroke:#181818;stroke-width:1.0;"/><polygon fill="#181818" points="714.45,658.5069,706.2328,653.0775,709.5184,657.6824,704.9136,660.968,714.45,658.5069" style="stroke:#181818;stroke-width:1.0;"/><text fill="#000000" font-family="sans-serif" font-size="13" lengthAdjust="spacing" textLength="94" x="453.5" y="612.5938">GetTaskStatus</text></g><!--link ProcessTask to CreateTask--><g id="link_ProcessTask_CreateTask"><path d="M668.7,419.7169 C534.36,423.1969 197.07,435.5569 163.5,472.5269 C143.77,494.2569 170.1405,511.6458 202.0105,524.7458 " fill="none" id="ProcessTask-to-CreateTask" style="stroke:#181818;stroke-width:1.0;"/><polygon fill="#181818" points="207.56,527.0269,200.7565,519.9056,202.9354,525.126,197.7151,527.3049,207.56,527.0269" style="stroke:#181818;stroke-width:1.0;"/><text fill="#000000" font-family="sans-serif" font-size="13" lengthAdjust="spacing" textLength="83" x="164.5" y="485.5938">TaskCreation</text></g><!--link CreateTask to ProcessTask--><g id="link_CreateTask_ProcessTask"><path d="M270.99,519.3369 C281.28,503.3069 297,483.2969 316.5,472.5269 C375.93,439.6969 566.2979,426.134 662.8779,421.184 " fill="none" id="CreateTask-to-ProcessTask" style="stroke:#181818;stroke-width:1.0;"/><polygon fill="#181818" points="668.87,420.8769,659.6771,417.3428,663.8766,421.1328,660.0865,425.3323,668.87,420.8769" style="stroke:#181818;stroke-width:1.0;"/><text fill="#000000" font-family="sans-serif" font-size="13" lengthAdjust="spacing" textLength="80" x="317.5" y="485.5938">TaskCreated</text></g><!--link UpdateStatus to ProcessTask--><g id="link_UpdateStatus_ProcessTask"><path d="M786.96,540.6669 C859.81,535.6969 979.24,522.6169 1006.5,489.5269 C1011.3,483.6969 1011.32,478.3469 1006.5,472.5269 C978.13,438.2269 858.3786,425.886 784.3886,421.326 " fill="none" id="UpdateStatus-to-ProcessTask" style="stroke:#181818;stroke-width:1.0;"/><polygon fill="#181818" points="778.4,420.9569,787.1369,425.5029,783.3905,421.2644,787.629,417.5181,778.4,420.9569" style="stroke:#181818;stroke-width:1.0;"/><text fill="#000000" font-family="sans-serif" font-size="13" lengthAdjust="spacing" textLength="99" x="1011.5" y="485.5938">TaskCompleted</text></g><!--link ProcessTask to UpdateStatus--><g id="link_ProcessTask_UpdateStatus"><path d="M668.51,421.9269 C569.8,429.1069 375.93,448.6169 410.5,489.5269 C443.35,528.4069 583.5941,539.0862 666.1941,542.1262 " fill="none" id="ProcessTask-to-UpdateStatus" style="stroke:#181818;stroke-width:1.0;"/><polygon fill="#181818" points="672.19,542.3469,663.3432,538.0186,667.1934,542.163,663.049,546.0132,672.19,542.3469" style="stroke:#181818;stroke-width:1.0;"/><text fill="#000000" font-family="sans-serif" font-size="13" lengthAdjust="spacing" textLength="274" x="411.5" y="485.5938">ExecutorFinded / TaskStatusNotCompleted</text></g><!--link ProcessTask to UpdateStatus--><g id="link_ProcessTask_UpdateStatus"><path d="M722.21,442.8669 C721.73,456.5869 721.5,474.0269 722.5,489.5269 C723.13,499.2469 723.5567,503.9436 724.8367,513.1836 " fill="none" id="ProcessTask-to-UpdateStatus-1" style="stroke:#181818;stroke-width:1.0;"/><polygon fill="#181818" points="725.66,519.1269,728.3872,509.6631,724.9739,514.1742,720.4629,510.7609,725.66,519.1269" style="stroke:#181818;stroke-width:1.0;"/><text fill="#000000" font-family="sans-serif" font-size="13" lengthAdjust="spacing" textLength="274" x="723.5" y="485.5938">ExecutorNotFinded / TaskStatusCompleted</text></g><!--link ProcessTask to PollingExecutor--><g id="link_ProcessTask_PollingExecutor"><path d="M778.32,421.5069 C872.64,427.3569 1061.11,442.5069 1119.5,472.5269 C1140.45,483.2969 1154.7981,498.5083 1166.8381,514.5483 " fill="none" id="ProcessTask-to-PollingExecutor" style="stroke:#181818;stroke-width:1.0;"/><polygon fill="#181818" points="1170.44,519.3469,1168.2362,509.7478,1167.4384,515.3481,1161.8381,514.5503,1170.44,519.3469" style="stroke:#181818;stroke-width:1.0;"/><text fill="#000000" font-family="sans-serif" font-size="13" lengthAdjust="spacing" textLength="140" x="1144.5" y="485.5938">Created / Start polling</text></g><!--link WaitingCommand to Exit--><g id="link_WaitingCommand_Exit"><path d="M1256.52,315.9069 C1271.4,323.8469 1286.51,333.7169 1298.5,345.5269 C1311.83,358.6469 1319.4172,371.8134 1325.9572,386.7034 " fill="none" id="WaitingCommand-to-Exit" style="stroke:#181818;stroke-width:1.0;"/><polygon fill="#181818" points="1328.37,392.1969,1328.413,382.3481,1326.3593,387.619,1321.0884,385.5652,1328.37,392.1969" style="stroke:#181818;stroke-width:1.0;"/><text fill="#000000" font-family="sans-serif" font-size="13" lengthAdjust="spacing" textLength="23" x="1312.5" y="358.5938">Exit</text></g><!--link Exit to *end*--><g id="link_Exit_*end*"><path d="M1340.23,442.9269 C1343.3,470.3469 1347.4814,507.6442 1349.6814,527.2642 " fill="none" id="Exit-to-*end*" style="stroke:#181818;stroke-width:1.0;"/><polygon fill="#181818" points="1350.35,533.2269,1353.3222,523.8372,1349.7928,528.258,1345.372,524.7287,1350.35,533.2269" style="stroke:#181818;stroke-width:1.0;"/></g><!--SRC=[bL9DJyCm3BtdL_YCD77V0GxLG4W8JMpJ3eX3QCo8bYLLwag3Nu_TjBJh1uXJekVtdkqdRoqvX0rfGdWBTAlKWxTajRDVccpmi8ILZ_G9r_0OjCc2VxU7COTnZpang_anhDJBrIii5ZTmIH-gXR7N3Fb35audxGqR2gVf2KrJDI29RXr3ZcMvrUMHHVAqLPua8cybsDzA2Q0gE-qzabGIh3ReJVe-OravcXuvCOIBHlNjXPrzO7vicp6bvzwLX3ZgjHmCCtB-MRDDG039kLUPoQec6BKh3B_9VpxMmY5DR3RAuNVwHIy-hZFc5OLuPoKsJhxRz2dGlsrOC-4qRxCEpl7mhLmkEMN2UjP6WY8n9gzlTRPKDxUawh-0VFJV]--></g></svg>