<?xml version="1.0" encoding="us-ascii" standalone="no"?><svg xmlns="http://www.w3.org/2000/svg" xmlns:xlink="http://www.w3.org/1999/xlink" contentStyleType="text/css" height="481px" preserveAspectRatio="none" style="width:1116px;height:481px;background:#FFFFFF;" version="1.1" viewBox="0 0 1116 481" width="1116px" zoomAndPan="magnify"><defs/><g><text fill="#000000" font-family="sans-serif" font-size="14" font-weight="bold" lengthAdjust="spacing" textLength="100" x="501" y="22.9951">Components</text><!--cluster Presenter--><g id="cluster_Presenter"><path d="M10.5,43.2969 L90.5,43.2969 A3.75,3.75 0 0 1 93,45.7969 L100,65.5938 L372.5,65.5938 A2.5,2.5 0 0 1 375,68.0938 L375,138.0969 A2.5,2.5 0 0 1 372.5,140.5969 L10.5,140.5969 A2.5,2.5 0 0 1 8,138.0969 L8,45.7969 A2.5,2.5 0 0 1 10.5,43.2969 " fill="none" style="stroke:#000000;stroke-width:1.5;"/><line style="stroke:#000000;stroke-width:1.5;" x1="8" x2="100" y1="65.5938" y2="65.5938"/><text fill="#000000" font-family="sans-serif" font-size="14" font-weight="bold" lengthAdjust="spacing" textLength="79" x="12" y="58.292">Presenter</text></g><!--cluster Logic--><g id="cluster_Logic"><path d="M8.5,164.5969 L51.5,164.5969 A3.75,3.75 0 0 1 54,167.0969 L61,186.8938 L507.5,186.8938 A2.5,2.5 0 0 1 510,189.3938 L510,471.9869 A2.5,2.5 0 0 1 507.5,474.4869 L8.5,474.4869 A2.5,2.5 0 0 1 6,471.9869 L6,167.0969 A2.5,2.5 0 0 1 8.5,164.5969 " fill="none" style="stroke:#000000;stroke-width:1.5;"/><line style="stroke:#000000;stroke-width:1.5;" x1="6" x2="61" y1="186.8938" y2="186.8938"/><text fill="#000000" font-family="sans-serif" font-size="14" font-weight="bold" lengthAdjust="spacing" textLength="42" x="10" y="179.592">Logic</text></g><!--cluster Infrastructure--><g id="cluster_Infrastructure"><path d="M401.5,43.2969 L512.5,43.2969 A3.75,3.75 0 0 1 515,45.7969 L522,65.5938 L522.5,65.5938 A2.5,2.5 0 0 1 525,68.0938 L525,138.0969 A2.5,2.5 0 0 1 522.5,140.5969 L401.5,140.5969 A2.5,2.5 0 0 1 399,138.0969 L399,45.7969 A2.5,2.5 0 0 1 401.5,43.2969 " fill="none" style="stroke:#000000;stroke-width:1.5;"/><line style="stroke:#000000;stroke-width:1.5;" x1="399" x2="522" y1="65.5938" y2="65.5938"/><text fill="#000000" font-family="sans-serif" font-size="14" font-weight="bold" lengthAdjust="spacing" textLength="110" x="403" y="58.292">Infrastructure</text></g><!--cluster PollingSystem--><g id="cluster_PollingSystem"><path d="M536.5,164.5969 L647.5,164.5969 A3.75,3.75 0 0 1 650,167.0969 L657,186.8938 L1106.5,186.8938 A2.5,2.5 0 0 1 1109,189.3938 L1109,259.3969 A2.5,2.5 0 0 1 1106.5,261.8969 L536.5,261.8969 A2.5,2.5 0 0 1 534,259.3969 L534,167.0969 A2.5,2.5 0 0 1 536.5,164.5969 " fill="none" style="stroke:#000000;stroke-width:1.5;"/><line style="stroke:#000000;stroke-width:1.5;" x1="534" x2="657" y1="186.8938" y2="186.8938"/><text fill="#000000" font-family="sans-serif" font-size="14" font-weight="bold" lengthAdjust="spacing" textLength="110" x="538" y="179.592">PollingSystem</text></g><!--entity CommandReader--><g id="elem_CommandReader"><rect fill="#F1F1F1" height="46.2969" rx="2.5" ry="2.5" style="stroke:#181818;stroke-width:0.5;" width="161" x="23.5" y="78.2969"/><rect fill="#F1F1F1" height="10" style="stroke:#181818;stroke-width:0.5;" width="15" x="164.5" y="83.2969"/><rect fill="#F1F1F1" height="2" style="stroke:#181818;stroke-width:0.5;" width="4" x="162.5" y="85.2969"/><rect fill="#F1F1F1" height="2" style="stroke:#181818;stroke-width:0.5;" width="4" x="162.5" y="89.2969"/><text fill="#000000" font-family="sans-serif" font-size="14" lengthAdjust="spacing" textLength="121" x="38.5" y="111.292">CommandReader</text></g><!--entity OutputSystem--><g id="elem_OutputSystem"><rect fill="#F1F1F1" height="46.2969" rx="2.5" ry="2.5" style="stroke:#181818;stroke-width:0.5;" width="139" x="219.5" y="78.2969"/><rect fill="#F1F1F1" height="10" style="stroke:#181818;stroke-width:0.5;" width="15" x="338.5" y="83.2969"/><rect fill="#F1F1F1" height="2" style="stroke:#181818;stroke-width:0.5;" width="4" x="336.5" y="85.2969"/><rect fill="#F1F1F1" height="2" style="stroke:#181818;stroke-width:0.5;" width="4" x="336.5" y="89.2969"/><text fill="#000000" font-family="sans-serif" font-size="14" lengthAdjust="spacing" textLength="99" x="234.5" y="111.292">OutputSystem</text></g><!--entity ICommandReader--><g id="elem_ICommandReader"><rect fill="#F1F1F1" height="46.2969" rx="2.5" ry="2.5" style="stroke:#181818;stroke-width:0.5;" width="164" x="22" y="199.5969"/><rect fill="#F1F1F1" height="10" style="stroke:#181818;stroke-width:0.5;" width="15" x="166" y="204.5969"/><rect fill="#F1F1F1" height="2" style="stroke:#181818;stroke-width:0.5;" width="4" x="164" y="206.5969"/><rect fill="#F1F1F1" height="2" style="stroke:#181818;stroke-width:0.5;" width="4" x="164" y="210.5969"/><text fill="#000000" font-family="sans-serif" font-size="14" lengthAdjust="spacing" textLength="124" x="37" y="232.592">ICommandReader</text></g><!--entity IOutputSystem--><g id="elem_IOutputSystem"><rect fill="#F1F1F1" height="46.2969" rx="2.5" ry="2.5" style="stroke:#181818;stroke-width:0.5;" width="142" x="221" y="199.5969"/><rect fill="#F1F1F1" height="10" style="stroke:#181818;stroke-width:0.5;" width="15" x="343" y="204.5969"/><rect fill="#F1F1F1" height="2" style="stroke:#181818;stroke-width:0.5;" width="4" x="341" y="206.5969"/><rect fill="#F1F1F1" height="2" style="stroke:#181818;stroke-width:0.5;" width="4" x="341" y="210.5969"/><text fill="#000000" font-family="sans-serif" font-size="14" lengthAdjust="spacing" textLength="102" x="236" y="232.592">IOutputSystem</text></g><!--entity CommandProcessor--><g id="elem_CommandProcessor"><rect fill="#F1F1F1" height="46.2969" rx="2.5" ry="2.5" style="stroke:#181818;stroke-width:0.5;" width="181" x="100.5" y="305.8969"/><rect fill="#F1F1F1" height="10" style="stroke:#181818;stroke-width:0.5;" width="15" x="261.5" y="310.8969"/><rect fill="#F1F1F1" height="2" style="stroke:#181818;stroke-width:0.5;" width="4" x="259.5" y="312.8969"/><rect fill="#F1F1F1" height="2" style="stroke:#181818;stroke-width:0.5;" width="4" x="259.5" y="316.8969"/><text fill="#000000" font-family="sans-serif" font-size="14" lengthAdjust="spacing" textLength="141" x="115.5" y="338.892">CommandProcessor</text></g><!--entity IPollingSystem--><g id="elem_IPollingSystem"><rect fill="#F1F1F1" height="46.2969" rx="2.5" ry="2.5" style="stroke:#181818;stroke-width:0.5;" width="139" x="354.5" y="305.8969"/><rect fill="#F1F1F1" height="10" style="stroke:#181818;stroke-width:0.5;" width="15" x="473.5" y="310.8969"/><rect fill="#F1F1F1" height="2" style="stroke:#181818;stroke-width:0.5;" width="4" x="471.5" y="312.8969"/><rect fill="#F1F1F1" height="2" style="stroke:#181818;stroke-width:0.5;" width="4" x="471.5" y="316.8969"/><text fill="#000000" font-family="sans-serif" font-size="14" lengthAdjust="spacing" textLength="99" x="369.5" y="338.892">IPollingSystem</text></g><!--entity IStorage--><g id="elem_IStorage"><rect fill="#F1F1F1" height="46.2969" rx="2.5" ry="2.5" style="stroke:#181818;stroke-width:0.5;" width="97" x="397.5" y="199.5969"/><rect fill="#F1F1F1" height="10" style="stroke:#181818;stroke-width:0.5;" width="15" x="474.5" y="204.5969"/><rect fill="#F1F1F1" height="2" style="stroke:#181818;stroke-width:0.5;" width="4" x="472.5" y="206.5969"/><rect fill="#F1F1F1" height="2" style="stroke:#181818;stroke-width:0.5;" width="4" x="472.5" y="210.5969"/><text fill="#000000" font-family="sans-serif" font-size="14" lengthAdjust="spacing" textLength="57" x="412.5" y="232.592">IStorage</text></g><!--entity TaskProcessor--><g id="elem_TaskProcessor"><rect fill="#F1F1F1" height="46.2969" rx="2.5" ry="2.5" style="stroke:#181818;stroke-width:0.5;" width="143" x="246.5" y="412.1869"/><rect fill="#F1F1F1" height="10" style="stroke:#181818;stroke-width:0.5;" width="15" x="369.5" y="417.1869"/><rect fill="#F1F1F1" height="2" style="stroke:#181818;stroke-width:0.5;" width="4" x="367.5" y="419.1869"/><rect fill="#F1F1F1" height="2" style="stroke:#181818;stroke-width:0.5;" width="4" x="367.5" y="423.1869"/><text fill="#000000" font-family="sans-serif" font-size="14" lengthAdjust="spacing" textLength="103" x="261.5" y="445.182">TaskProcessor</text></g><!--entity Storage--><g id="elem_Storage"><rect fill="#F1F1F1" height="46.2969" rx="2.5" ry="2.5" style="stroke:#181818;stroke-width:0.5;" width="94" x="415" y="78.2969"/><rect fill="#F1F1F1" height="10" style="stroke:#181818;stroke-width:0.5;" width="15" x="489" y="83.2969"/><rect fill="#F1F1F1" height="2" style="stroke:#181818;stroke-width:0.5;" width="4" x="487" y="85.2969"/><rect fill="#F1F1F1" height="2" style="stroke:#181818;stroke-width:0.5;" width="4" x="487" y="89.2969"/><text fill="#000000" font-family="sans-serif" font-size="14" lengthAdjust="spacing" textLength="54" x="430" y="111.292">Storage</text></g><!--entity ChannelMessage--><g id="elem_ChannelMessage"><rect fill="#F1F1F1" height="46.2969" rx="2.5" ry="2.5" style="stroke:#181818;stroke-width:0.5;" width="160" x="550" y="199.5969"/><rect fill="#F1F1F1" height="10" style="stroke:#181818;stroke-width:0.5;" width="15" x="690" y="204.5969"/><rect fill="#F1F1F1" height="2" style="stroke:#181818;stroke-width:0.5;" width="4" x="688" y="206.5969"/><rect fill="#F1F1F1" height="2" style="stroke:#181818;stroke-width:0.5;" width="4" x="688" y="210.5969"/><text fill="#000000" font-family="sans-serif" font-size="14" lengthAdjust="spacing" textLength="120" x="565" y="232.592">ChannelMessage</text></g><!--entity PersonalMessage--><g id="elem_PersonalMessage"><rect fill="#F1F1F1" height="46.2969" rx="2.5" ry="2.5" style="stroke:#181818;stroke-width:0.5;" width="163" x="744.5" y="199.5969"/><rect fill="#F1F1F1" height="10" style="stroke:#181818;stroke-width:0.5;" width="15" x="887.5" y="204.5969"/><rect fill="#F1F1F1" height="2" style="stroke:#181818;stroke-width:0.5;" width="4" x="885.5" y="206.5969"/><rect fill="#F1F1F1" height="2" style="stroke:#181818;stroke-width:0.5;" width="4" x="885.5" y="210.5969"/><text fill="#000000" font-family="sans-serif" font-size="14" lengthAdjust="spacing" textLength="123" x="759.5" y="232.592">PersonalMessage</text></g><!--entity AssignAlgorithm--><g id="elem_AssignAlgorithm"><rect fill="#F1F1F1" height="46.2969" rx="2.5" ry="2.5" style="stroke:#181818;stroke-width:0.5;" width="151" x="942.5" y="199.5969"/><rect fill="#F1F1F1" height="10" style="stroke:#181818;stroke-width:0.5;" width="15" x="1073.5" y="204.5969"/><rect fill="#F1F1F1" height="2" style="stroke:#181818;stroke-width:0.5;" width="4" x="1071.5" y="206.5969"/><rect fill="#F1F1F1" height="2" style="stroke:#181818;stroke-width:0.5;" width="4" x="1071.5" y="210.5969"/><text fill="#000000" font-family="sans-serif" font-size="14" lengthAdjust="spacing" textLength="111" x="957.5" y="232.592">AssignAlgorithm</text></g><!--link CommandReader to ICommandReader--><g id="link_CommandReader_ICommandReader"><path d="M104,124.8869 C104,146.2169 104,172.1069 104,193.4069 " fill="none" id="CommandReader-to-ICommandReader" style="stroke:#181818;stroke-width:1.0;"/><polygon fill="#181818" points="104,199.4069,108,190.4069,104,194.4069,100,190.4069,104,199.4069" style="stroke:#181818;stroke-width:1.0;"/></g><!--link OutputSystem to IOutputSystem--><g id="link_OutputSystem_IOutputSystem"><path d="M289.56,124.8869 C290.1,146.2169 290.7479,172.1088 291.2879,193.4088 " fill="none" id="OutputSystem-to-IOutputSystem" style="stroke:#181818;stroke-width:1.0;"/><polygon fill="#181818" points="291.44,199.4069,295.2106,190.3084,291.3133,194.4085,287.2132,190.5111,291.44,199.4069" style="stroke:#181818;stroke-width:1.0;"/></g><!--link ICommandReader to CommandProcessor--><g id="link_ICommandReader_CommandProcessor"><path d="M122.88,246.3769 C137.47,263.8669 153.7368,283.3693 168.3168,300.8493 " fill="none" id="ICommandReader-to-CommandProcessor" style="stroke:#181818;stroke-width:1.0;"/><polygon fill="#181818" points="172.16,305.4569,169.467,295.9834,168.9573,301.6172,163.3235,301.1076,172.16,305.4569" style="stroke:#181818;stroke-width:1.0;"/></g><!--link IOutputSystem to CommandProcessor--><g id="link_IOutputSystem_CommandProcessor"><path d="M270.08,246.3769 C253.14,263.8669 233.9743,283.667 217.0443,301.147 " fill="none" id="IOutputSystem-to-CommandProcessor" style="stroke:#181818;stroke-width:1.0;"/><polygon fill="#181818" points="212.87,305.4569,222.0047,301.7749,216.3486,301.8653,216.2582,296.2092,212.87,305.4569" style="stroke:#181818;stroke-width:1.0;"/></g><!--link CommandProcessor to TaskProcessor--><g id="link_CommandProcessor_TaskProcessor"><path d="M218.56,352.6769 C239.86,370.1669 264.5728,390.4595 285.8628,407.9395 " fill="none" id="CommandProcessor-to-TaskProcessor" style="stroke:#181818;stroke-width:1.0;"/><polygon fill="#181818" points="290.5,411.7469,286.0824,402.9443,286.6356,408.5741,281.0059,409.1273,290.5,411.7469" style="stroke:#181818;stroke-width:1.0;"/></g><!--link IPollingSystem to TaskProcessor--><g id="link_IPollingSystem_TaskProcessor"><path d="M401,352.6769 C383.22,370.1669 362.9962,390.0581 345.2362,407.5381 " fill="none" id="IPollingSystem-to-TaskProcessor" style="stroke:#181818;stroke-width:1.0;"/><polygon fill="#181818" points="340.96,411.7469,350.1802,408.2845,344.5235,408.2395,344.5685,402.5829,340.96,411.7469" style="stroke:#181818;stroke-width:1.0;"/></g><!--link IStorage to IPollingSystem--><g id="link_IStorage_IPollingSystem"><path d="M441.23,246.3769 C437.54,263.8669 433.6893,282.1063 429.9993,299.5863 " fill="none" id="IStorage-to-IPollingSystem" style="stroke:#181818;stroke-width:1.0;"/><polygon fill="#181818" points="428.76,305.4569,434.5327,297.4771,429.7927,300.5647,426.7052,295.8248,428.76,305.4569" style="stroke:#181818;stroke-width:1.0;"/></g><!--link IStorage to TaskProcessor--><g id="link_IStorage_TaskProcessor"><path d="M413.55,246.2969 C383.21,267.6869 341.84,297.7469 337,305.8969 C317.43,338.8469 315.2706,378.6802 316.1706,405.7502 " fill="none" id="IStorage-to-TaskProcessor" style="stroke:#181818;stroke-width:1.0;"/><polygon fill="#181818" points="316.37,411.7469,320.0687,402.6189,316.2039,406.7496,312.0731,402.8848,316.37,411.7469" style="stroke:#181818;stroke-width:1.0;"/></g><!--link ChannelMessage to IPollingSystem--><g id="link_ChannelMessage_IPollingSystem"><path d="M585.3,246.3769 C550.75,263.8669 519.1995,279.8471 484.6695,297.3271 " fill="none" id="ChannelMessage-to-IPollingSystem" style="stroke:#181818;stroke-width:1.0;"/><polygon fill="none" points="468.61,305.4569,487.3794,302.6803,481.9596,291.974,468.61,305.4569" style="stroke:#181818;stroke-width:1.0;"/></g><!--link PersonalMessage to IPollingSystem--><g id="link_PersonalMessage_IPollingSystem"><path d="M783.56,246.3369 C766.39,254.7269 746.12,263.7069 727,269.8969 C649.03,295.1169 573.8581,308.4855 511.6381,317.1455 " fill="none" id="PersonalMessage-to-IPollingSystem" style="stroke:#181818;stroke-width:1.0;"/><polygon fill="none" points="493.81,319.6269,512.4653,323.0882,510.811,311.2028,493.81,319.6269" style="stroke:#181818;stroke-width:1.0;"/></g><!--link AssignAlgorithm to IPollingSystem--><g id="link_AssignAlgorithm_IPollingSystem"><path d="M980.31,246.1569 C963.85,254.9469 944.01,264.2569 925,269.8969 C775.77,314.1169 610.2342,324.4991 511.9742,326.9991 " fill="none" id="AssignAlgorithm-to-IPollingSystem" style="stroke:#181818;stroke-width:1.0;"/><polygon fill="none" points="493.98,327.4569,512.1268,332.9971,511.8216,321.001,493.98,327.4569" style="stroke:#181818;stroke-width:1.0;"/></g><!--link Storage to IStorage--><g id="link_Storage_IStorage"><path d="M458.99,124.8869 C456.13,146.2169 454.2372,160.2659 451.3872,181.5659 " fill="none" id="Storage-to-IStorage" style="stroke:#181818;stroke-width:1.0;"/><polygon fill="none" points="449,199.4069,457.3342,182.3616,445.4402,180.7701,449,199.4069" style="stroke:#181818;stroke-width:1.0;"/></g><!--SRC=[VPB1Ri8m38RlUOg8Ew-0X7Qgj8bgS4CxHCM4Y3IfxFGmmTvzsKf5xQRaLkVtR-V_Ud39WtwBRHS3X4HAwNmwqroD1Rsg4IYN0LUt_uk_SypgreJJ9vWJuDUplkjJrwVzDoLeX_AFi7kFrZLJgsh9gvgRJMVN61iWYgobZjwxO6SzrJv5pFCdfOEXg_2GkrRXZ8OIzatg4QPBCplPnfPWgLrC2E0_yaY-Imr8CPZ2pPR8sR3rDg9B5vwfeA3NwqqvJexbeUFfgXABGJdBMwi2dmMjAYCRr0K44k4BuSZWyPu2UgaHDge49IllItOIqokj1BUWLUnt6aNZzoy0]--></g></svg>