<?xml version="1.0" encoding="us-ascii" standalone="no"?><svg xmlns="http://www.w3.org/2000/svg" xmlns:xlink="http://www.w3.org/1999/xlink" contentStyleType="text/css" height="517px" preserveAspectRatio="none" style="width:162px;height:517px;background:#FFFFFF;" version="1.1" viewBox="0 0 162 517" width="162px" zoomAndPan="magnify"><defs/><g><text fill="#000000" font-family="sans-serif" font-size="14" font-weight="bold" lengthAdjust="spacing" textLength="113" x="17.5" y="22.9951">States of Task</text><g id="Searching"><rect fill="#F1F1F1" height="50" rx="12.5" ry="12.5" style="stroke:#181818;stroke-width:0.5;" width="89" x="10.5" y="124.2969"/><line style="stroke:#181818;stroke-width:0.5;" x1="10.5" x2="99.5" y1="150.5938" y2="150.5938"/><text fill="#000000" font-family="sans-serif" font-size="14" lengthAdjust="spacing" textLength="69" x="20.5" y="142.292">Searching</text></g><g id="Pending"><rect fill="#F1F1F1" height="50" rx="12.5" ry="12.5" style="stroke:#181818;stroke-width:0.5;" width="77" x="16.5" y="251.2969"/><line style="stroke:#181818;stroke-width:0.5;" x1="16.5" x2="93.5" y1="277.5938" y2="277.5938"/><text fill="#000000" font-family="sans-serif" font-size="14" lengthAdjust="spacing" textLength="57" x="26.5" y="269.292">Pending</text></g><g id="Completed"><rect fill="#F1F1F1" height="50" rx="12.5" ry="12.5" style="stroke:#181818;stroke-width:0.5;" width="96" x="7" y="378.2969"/><line style="stroke:#181818;stroke-width:0.5;" x1="7" x2="103" y1="404.5938" y2="404.5938"/><text fill="#000000" font-family="sans-serif" font-size="14" lengthAdjust="spacing" textLength="76" x="17" y="396.292">Completed</text></g><ellipse cx="55" cy="53.2969" fill="#222222" rx="10" ry="10" style="stroke:#222222;stroke-width:1.0;"/><ellipse cx="55" cy="500.2969" fill="none" rx="11" ry="11" style="stroke:#222222;stroke-width:1.0;"/><ellipse cx="55" cy="500.2969" fill="#222222" rx="6" ry="6" style="stroke:#222222;stroke-width:1.0;"/><!--link *start* to Searching--><g id="link_*start*_Searching"><path d="M55,63.6569 C55,77.5869 55,98.2469 55,117.9469 " fill="none" id="*start*-to-Searching" style="stroke:#181818;stroke-width:1.0;"/><polygon fill="#181818" points="55,123.9469,59,114.9469,55,118.9469,51,114.9469,55,123.9469" style="stroke:#181818;stroke-width:1.0;"/></g><!--link Searching to Pending--><g id="link_Searching_Pending"><path d="M55,174.6969 C55,196.7169 55,222.9569 55,244.9569 " fill="none" id="Searching-to-Pending" style="stroke:#181818;stroke-width:1.0;"/><polygon fill="#181818" points="55,250.9569,59,241.9569,55,245.9569,51,241.9569,55,250.9569" style="stroke:#181818;stroke-width:1.0;"/><text fill="#000000" font-family="sans-serif" font-size="13" lengthAdjust="spacing" textLength="98" x="56" y="217.3638">AssignExecutor</text></g><!--link Pending to Completed--><g id="link_Pending_Completed"><path d="M55,301.6969 C55,323.7169 55,349.9569 55,371.9569 " fill="none" id="Pending-to-Completed" style="stroke:#181818;stroke-width:1.0;"/><polygon fill="#181818" points="55,377.9569,59,368.9569,55,372.9569,51,368.9569,55,377.9569" style="stroke:#181818;stroke-width:1.0;"/><text fill="#000000" font-family="sans-serif" font-size="13" lengthAdjust="spacing" textLength="91" x="56" y="344.3638">CompleteTask</text></g><!--link Completed to *end*--><g id="link_Completed_*end*"><path d="M55,428.7569 C55,448.3369 55,468.7869 55,483.0969 " fill="none" id="Completed-to-*end*" style="stroke:#181818;stroke-width:1.0;"/><polygon fill="#181818" points="55,489.0969,59,480.0969,55,484.0969,51,480.0969,55,489.0969" style="stroke:#181818;stroke-width:1.0;"/></g><!--SRC=[2yaioKbL22v9B4ajLiXFKmX9BCxcuYe6yHM2KnEBaZCoyzAX_83Kl1G4ppa_jo0djIGrXOihMYjMGLVN3aa3d0KMXsgqKd0iBivCptEjI4qkBSalueAAWzN0ZRE2Cy5kWOk3LG5j0W00]--></g></svg>